<svg width="175" height="390" viewBox="0 0 175 390" xmlns="http://www.w3.org/2000/svg">
  <!-- Samsung Galaxy S24 Case Template -->
  <defs>
    <linearGradient id="s24Grad" x1="0%" y1="0%" x2="100%" y2="0%">
      <stop offset="0%" stop-color="#2d3748" stop-opacity="0.4"/>
      <stop offset="50%" stop-color="#4a5568" stop-opacity="0.3"/>
      <stop offset="100%" stop-color="#1a202c" stop-opacity="0.4"/>
    </linearGradient>
  </defs>
  
  <!-- Case outline - premium aluminum frame -->
  <rect x="8" y="8" width="159" height="374" rx="18" ry="18" 
        fill="none" stroke="url(#s24Grad)" stroke-width="3"/>
        
  <!-- Volume buttons (left side) -->
  <rect x="2" y="98" width="10" height="20" rx="5" 
        fill="#4a5568" stroke="#2d3748" stroke-width="1"/>
  <rect x="2" y="122" width="10" height="20" rx="5" 
        fill="#4a5568" stroke="#2d3748" stroke-width="1"/>
        
  <!-- Power button (right side) -->
  <rect x="163" y="110" width="10" height="25" rx="5" 
        fill="#4a5568" stroke="#2d3748" stroke-width="1"/>
        
  <!-- Camera system (S24 triple camera) -->
  <rect x="20" y="26" width="75" height="75" rx="10" ry="10" 
        fill="#1a1a1a" stroke="#333" stroke-width="2"/>
        
  <!-- Individual camera lenses (3 cameras) -->
  <circle cx="40" cy="46" r="14" fill="#000" stroke="#333" stroke-width="2"/>
  <circle cx="75" cy="46" r="14" fill="#000" stroke="#333" stroke-width="2"/>
  <circle cx="57" cy="81" r="14" fill="#000" stroke="#333" stroke-width="2"/>
  
  <!-- Flash and sensors -->
  <circle cx="70" cy="70" r="4" fill="#ffd700" stroke="#ffed4e" stroke-width="1"/>
  <rect x="45" y="68" width="5" height="4" rx="2" fill="#4a5568"/>
        
  <!-- USB-C port (bottom center) -->
  <rect x="75" y="365" width="25" height="10" rx="5" 
        fill="#1a1a1a" stroke="#333" stroke-width="1"/>
        
  <!-- Speaker grilles -->
  <g fill="#1a1a1a" stroke="#333" stroke-width="0.5">
    <rect x="40" y="360" width="2.5" height="18" rx="1.2"/>
    <rect x="44" y="360" width="2.5" height="18" rx="1.2"/>
    <rect x="48" y="360" width="2.5" height="18" rx="1.2"/>
    <rect x="110" y="360" width="2.5" height="18" rx="1.2"/>
    <rect x="114" y="360" width="2.5" height="18" rx="1.2"/>
    <rect x="118" y="360" width="2.5" height="18" rx="1.2"/>
    <rect x="122" y="360" width="2.5" height="18" rx="1.2"/>
  </g>
</svg>
